<?xml version="1.0"?>

<svg width="100%" height="100%" viewBox="0 0 835 248" version="1.1" xmlns="http://www.w3.org/2000/svg" xmlns:xlink="http://www.w3.org/1999/xlink" xml:space="preserve" xmlns:serif="http://www.serif.com/" style="fill-rule:evenodd;clip-rule:evenodd;stroke-linejoin:round;stroke-miterlimit:2;">
    <g id="Artboard1" transform="matrix(0.965984,0,0,0.924583,-1621.886461,-1399.818594)">
        <rect x="1679" y="1514" width="863.663" height="267.543" style="fill:none;"></rect>
        <g transform="matrix(4.245392,0,0,0.595341,-1642.505821,-3207.888671)">
            <g transform="matrix(1.147475,0,0,7.25427,-495.673752,3883.302347)">
                <path d="M1124.21,559.86C1128.957,559.86 1132.806,564.396 1132.806,569.99L1132.806,602.14L1123.104,602.14C1118.967,602.14 1115.613,598.187 1115.613,593.311L1115.613,569.99C1115.613,564.396 1119.461,559.86 1124.209,559.86L1124.21,559.86ZM1124.21,564.14L1124.209,564.14C1121.467,564.14 1119.244,566.759 1119.244,569.99L1119.244,593.311C1119.244,595.824 1120.972,597.86 1123.104,597.86L1129.175,597.86L1129.175,569.99C1129.175,566.759 1126.952,564.14 1124.21,564.14Z" style="fill:rgb(226,114,91);"></path>
            </g>
            <g transform="matrix(0,-8.549069,-0.710526,-0,1228.425073,17904.77756)">
                <path d="M1124.21,559.068L1124.209,559.068C1121.929,559.068 1119.743,560.53 1118.131,563.134C1116.519,565.737 1115.613,569.268 1115.613,572.95L1115.613,590.834C1115.613,597.515 1118.967,602.932 1123.104,602.932L1132.806,602.932L1132.806,572.95C1132.806,569.268 1131.9,565.737 1130.288,563.134C1128.676,560.53 1126.49,559.068 1124.21,559.068ZM1124.21,564.932C1125.527,564.932 1126.79,565.777 1127.721,567.28C1128.652,568.784 1129.175,570.823 1129.175,572.95L1129.175,597.068L1123.104,597.068C1120.972,597.068 1119.244,594.277 1119.244,590.834L1119.244,572.95C1119.244,570.823 1119.767,568.784 1120.698,567.28C1121.629,565.777 1122.892,564.932 1124.209,564.932L1124.21,564.932Z" style="fill:rgb(226,114,91);"></path>
            </g>
            <g transform="matrix(0.89906,0,0,6.698293,-217.477411,2371.167989)">
                <path d="M1199.812,878.115L1199.812,872.608L1188.671,872.608L1188.671,848.908L1182.913,848.908L1182.913,878.115L1199.812,878.115Z" style="fill:rgb(226,114,91);"></path>
                <path d="M1204.313,857.01L1204.313,869.82C1204.313,872.518 1205.058,874.633 1206.546,876.162C1208.034,877.693 1209.918,878.457 1212.199,878.457C1215.037,878.457 1217.109,877.484 1218.417,875.536L1218.417,877.873L1223.799,877.873L1223.799,857.01L1218.417,857.01L1218.417,868.276C1218.417,870.001 1217.999,871.294 1217.165,872.156C1216.33,873.019 1215.218,873.45 1213.827,873.45C1212.575,873.45 1211.573,873.082 1210.822,872.344C1210.071,871.607 1209.696,870.543 1209.696,869.153L1209.696,857.01L1204.313,857.01L1204.313,857.01Z" style="fill:rgb(226,114,91);"></path>
                <g transform="matrix(1,0,0,1,-0.037155,0)">
                    <path d="M1228.313,857.01L1228.313,877.873L1233.695,877.873L1233.695,866.148C1233.695,864.618 1234.05,863.45 1234.76,862.644C1235.469,861.836 1236.421,861.433 1237.618,861.433C1238.73,861.433 1239.592,861.781 1240.204,862.476C1240.817,863.172 1241.122,864.145 1241.122,865.397L1241.122,877.873L1246.505,877.873L1246.505,866.148C1246.505,864.618 1246.846,863.45 1247.528,862.644C1248.209,861.836 1249.161,861.433 1250.386,861.433C1251.498,861.433 1252.36,861.781 1252.972,862.476C1253.584,863.172 1253.891,864.145 1253.891,865.397L1253.891,877.873L1259.273,877.873L1259.273,865.022C1259.273,862.407 1258.557,860.321 1257.124,858.763C1255.692,857.205 1253.779,856.426 1251.387,856.426C1248.633,856.426 1246.561,857.427 1245.17,859.431C1243.946,857.427 1242.054,856.426 1239.495,856.426C1236.88,856.426 1234.947,857.358 1233.695,859.222L1233.695,857.01L1228.313,857.01L1228.313,857.01Z" style="fill:rgb(226,114,91);"></path>
                </g>
                <g transform="matrix(1,0,0,1,-0.049677,0)">
                    <path d="M1279.055,871.677C1277.956,872.775 1276.573,873.325 1274.904,873.325C1273.235,873.325 1271.858,872.775 1270.773,871.677C1269.688,870.578 1269.146,869.166 1269.146,867.442C1269.146,865.717 1269.688,864.305 1270.773,863.206C1271.858,862.108 1273.235,861.558 1274.904,861.558C1276.573,861.558 1277.956,862.108 1279.055,863.206C1280.154,864.305 1280.704,865.717 1280.704,867.442C1280.704,869.166 1280.154,870.578 1279.055,871.677ZM1286.086,877.873L1286.086,857.01L1280.704,857.01L1280.704,859.472C1279.09,857.442 1276.823,856.426 1273.902,856.426C1271.12,856.426 1268.735,857.49 1266.746,859.618C1264.758,861.746 1263.763,864.354 1263.763,867.442C1263.763,870.529 1264.758,873.137 1266.746,875.265C1268.735,877.394 1271.12,878.457 1273.902,878.457C1276.823,878.457 1279.09,877.442 1280.704,875.411L1280.704,877.873L1286.086,877.873Z" style="fill:rgb(226,114,91);"></path>
                </g>
                <g transform="matrix(1,0,0,1,-0.049676,0)">
                    <path d="M1290.563,857.01L1290.563,877.873L1295.945,877.873L1295.945,866.607C1295.945,864.883 1296.362,863.589 1297.197,862.727C1298.031,861.865 1299.144,861.433 1300.535,861.433C1301.787,861.433 1302.789,861.802 1303.539,862.539C1304.29,863.276 1304.666,864.34 1304.666,865.731L1304.666,877.873L1310.049,877.873L1310.049,865.064C1310.049,862.365 1309.304,860.251 1307.816,858.721C1306.328,857.191 1304.443,856.426 1302.162,856.426C1299.325,856.426 1297.252,857.4 1295.945,859.347L1295.945,857.01L1290.563,857.01Z" style="fill:rgb(226,114,91);"></path>
                </g>
                <g transform="matrix(1,0,0,1,-0.086831,0.000115)">
                    <path d="M1330.752,865.481L1320.112,865.481C1320.418,864.145 1321.044,863.109 1321.99,862.372C1322.936,861.635 1324.132,861.266 1325.579,861.266C1326.802,861.266 1327.894,861.614 1328.854,862.31C1329.813,863.005 1330.446,864.062 1330.752,865.481ZM1317.651,859.576C1315.592,861.677 1314.563,864.298 1314.563,867.442C1314.563,870.613 1315.606,873.242 1317.692,875.328C1319.779,877.414 1322.546,878.457 1325.996,878.457C1330.001,878.457 1333.033,876.969 1335.091,873.993L1330.752,871.489C1329.695,872.88 1328.138,873.575 1326.079,873.575C1322.88,873.575 1320.919,872.268 1320.196,869.654L1335.926,869.654C1336.065,868.874 1336.135,868.137 1336.135,867.442C1336.135,864.326 1335.14,861.712 1333.151,859.597C1331.162,857.483 1328.638,856.426 1325.579,856.426C1322.351,856.426 1319.709,857.476 1317.651,859.576L1317.651,859.576Z" style="fill:rgb(226,114,91);"></path>
                </g>
            </g>
            <g transform="matrix(-0,7.450331,-1,-0,1819.366884,-310.461087)">
                <g transform="matrix(-0,-0.243844,0.243844,-0,1106.240362,1036.98786)">
                    <use xlink:href="#_Image1" x="72.37" y="110.042" width="18px" height="49px"></use>
                </g>
            </g>
            <g transform="matrix(0,-4.250435,1,0,-215.148326,13117.958641)">
                <g transform="matrix(0,0.243844,-0.42742,0,1220.242939,997.52735)">
                    <use xlink:href="#_Image2" x="72.37" y="176.04" width="18px" height="28px"></use>
                </g>
            </g>
            <g transform="matrix(-0,9.324399,-1,-0,1819.366884,-2456.268794)">
                <g transform="matrix(-0,-0.243844,0.194835,-0,1114.030482,1036.98786)">
                    <use xlink:href="#_Image3" x="72.37" y="97.739" width="18px" height="62px"></use>
                </g>
            </g>
            <g transform="matrix(0,-4.356172,1,0,-215.148326,13239.02822)">
                <g transform="matrix(0,0.243844,-0.417045,0,1218.416563,997.52735)">
                    <use xlink:href="#_Image4" x="72.37" y="176.04" width="18px" height="29px"></use>
                </g>
            </g>
        </g>
    </g>
    <defs>
        <image id="_Image1" width="18px" height="49px"></image>
        <image id="_Image2" width="18px" height="28px"></image>
        <image id="_Image3" width="18px" height="62px"></image>
        <image id="_Image4" width="18px" height="29px"></image>
    </defs>
</svg>
